<svg width="13" height="21" viewBox="0 0 13 21" fill="none" xmlns="http://www.w3.org/2000/svg">
<path d="M6.38146 19.4301L6.38146 2.5481M6.38146 19.4301C6.38146 19.4301 9.88529 15.9263 11.1594 12.104C12.4335 8.28165 12.115 8.6001 11.1594 6.05191C10.2038 3.50372 6.38146 2.5481 6.38146 2.5481M6.38146 19.4301C6.38146 19.4301 2.58365 15.3188 1.60355 12.104C0.841772 9.60528 0.65105 8.33409 1.92209 6.05191C3.14764 3.85141 6.38146 2.5481 6.38146 2.5481" stroke="#0C780C"/>
<path d="M6.38159 3.18528L6.38159 2.2297V0" stroke="#0C780C" stroke-width="0.5"/>
<path d="M6.38135 6.37061L8.29252 8.28178" stroke="#0C780C" stroke-width="0.5"/>
<path d="M6.38139 6.37061L4.47021 8.28178" stroke="#0C780C" stroke-width="0.5"/>
<path d="M6.38139 8.9187L4.47021 10.5113" stroke="#0C780C" stroke-width="0.5"/>
<path d="M6.38146 11.467L4.78882 13.0597" stroke="#0C780C" stroke-width="0.5"/>
<path d="M6.38146 14.0154L4.78882 15.2895" stroke="#0C780C" stroke-width="0.5"/>
<path d="M6.38146 4.77783L4.78882 6.05195" stroke="#0C780C" stroke-width="0.5"/>
<path d="M6.38159 8.9187L7.97423 10.5113" stroke="#0C780C" stroke-width="0.5"/>
<path d="M6.38159 11.467L7.97423 13.0597" stroke="#0C780C" stroke-width="0.5"/>
<path d="M6.38159 14.0154L7.65571 15.2895" stroke="#0C780C" stroke-width="0.5"/>
<path d="M6.69995 4.77783L7.97407 6.05195" stroke="#0C780C" stroke-width="0.5"/>
</svg>
