<svg width="546" height="69" viewBox="0 0 546 69" fill="none" xmlns="http://www.w3.org/2000/svg">
<path d="M10.4778 61.6882L16.0528 42.6002M10.4778 61.6882C10.4778 61.6882 15.9531 58.7881 18.7856 54.8523C21.6181 50.9165 21.1204 51.18 20.7842 48.0094C20.448 44.8387 16.0528 42.6002 16.0528 42.6002M10.4778 61.6882C10.4778 61.6882 7.15494 55.8891 7.00866 51.9572C6.89497 48.9012 7.07971 47.4061 9.39982 45.2108C11.6369 43.094 16.0528 42.6002 16.0528 42.6002" stroke="#0C780C" stroke-width="2"/>
<path d="M15.8424 43.3205L16.158 42.2401L16.8943 39.719" stroke="#0C780C"/>
<path d="M14.7905 46.922L16.5148 49.6619" stroke="#0C780C"/>
<path d="M14.7904 46.922L11.8039 48.5039" stroke="#0C780C"/>
<path d="M13.9491 49.8032L11.0678 51.025" stroke="#0C780C"/>
<path d="M13.1076 52.6844L10.6188 54.0027" stroke="#0C780C"/>
<path d="M12.266 55.5656L9.88247 56.5237" stroke="#0C780C"/>
<path d="M15.3166 45.1212L12.933 46.0793" stroke="#0C780C"/>
<path d="M13.949 49.8032L15.3859 52.0865" stroke="#0C780C"/>
<path d="M13.1077 52.6844L14.5446 54.9677" stroke="#0C780C"/>
<path d="M12.2661 55.5656L13.4156 57.3923" stroke="#0C780C"/>
<path d="M15.709 45.2177L16.8585 47.0444" stroke="#0C780C"/>
<path d="M53.7629 19.6565L48.188 38.7445M53.7629 19.6565C53.7629 19.6565 48.2876 22.5566 45.4551 26.4924C42.6226 30.4282 43.1203 30.1646 43.4565 33.3353C43.7928 36.506 48.188 38.7445 48.188 38.7445M53.7629 19.6565C53.7629 19.6565 57.0858 25.4556 57.2321 29.3874C57.3457 32.4434 57.161 33.9385 54.8409 36.1338C52.6038 38.2506 48.188 38.7445 48.188 38.7445" stroke="#0C780C" stroke-width="2"/>
<path d="M48.3986 38.0241L48.083 39.1046L47.3467 41.6256" stroke="#0C780C"/>
<path d="M49.4504 34.4226L47.7262 31.6827" stroke="#0C780C"/>
<path d="M49.4503 34.4226L52.4368 32.8407" stroke="#0C780C"/>
<path d="M50.2918 31.5414L53.1732 30.3197" stroke="#0C780C"/>
<path d="M51.1334 28.6602L53.6221 27.342" stroke="#0C780C"/>
<path d="M51.9749 25.779L54.3585 24.8209" stroke="#0C780C"/>
<path d="M48.9244 36.2234L51.308 35.2653" stroke="#0C780C"/>
<path d="M50.292 31.5414L48.8551 29.2581" stroke="#0C780C"/>
<path d="M51.1333 28.6602L49.6964 26.3769" stroke="#0C780C"/>
<path d="M51.9749 25.779L50.8253 23.9524" stroke="#0C780C"/>
<path d="M48.5317 36.1269L47.3822 34.3002" stroke="#0C780C"/>
<path d="M98.8957 49.9301L83.6647 35.9567M98.8957 49.9301C98.8957 49.9301 98.8958 44.1298 96.5967 39.9114C94.2977 35.6931 94.2977 36.2203 91.1365 34.9021C87.9754 33.5839 83.6647 35.9567 83.6647 35.9567M98.8957 49.9301C98.8957 49.9301 91.7601 49.6706 87.9754 47.8209C85.0338 46.3832 83.7149 45.4889 82.8026 42.5479C81.923 39.7121 83.6647 35.9567 83.6647 35.9567" stroke="#0C780C" stroke-width="2"/>
<path d="M84.2397 36.484L83.3776 35.6931L81.366 33.8475" stroke="#0C780C"/>
<path d="M87.1135 39.1205H90.5621" stroke="#0C780C"/>
<path d="M87.1134 39.1205V42.2843" stroke="#0C780C"/>
<path d="M89.4125 41.2297L89.1251 44.1298" stroke="#0C780C"/>
<path d="M91.7115 43.3389V45.9754" stroke="#0C780C"/>
<path d="M94.0104 45.4481L93.723 47.8209" stroke="#0C780C"/>
<path d="M85.6766 37.8023L85.3893 40.1751" stroke="#0C780C"/>
<path d="M89.4124 41.2297H92.2861" stroke="#0C780C"/>
<path d="M91.7114 43.3389H94.5852" stroke="#0C780C"/>
<path d="M94.0105 45.4481H96.3095" stroke="#0C780C"/>
<path d="M85.9639 37.5386H88.2629" stroke="#0C780C"/>
<path d="M128.306 1.63042L133.881 20.7184M128.306 1.63042C128.306 1.63042 125.144 6.65357 124.836 11.3614C124.528 16.0692 124.816 15.6126 126.835 18.2043C128.854 20.796 133.881 20.7184 133.881 20.7184M128.306 1.63042C128.306 1.63042 134.344 5.12833 136.613 8.46633C138.377 11.0608 139.032 12.4403 138.219 15.4057C137.436 18.2651 133.881 20.7184 133.881 20.7184" stroke="#0C780C" stroke-width="2"/>
<path d="M133.67 19.9981L133.986 21.0786L134.722 23.5996" stroke="#0C780C"/>
<path d="M132.618 16.3966L129.632 14.8147" stroke="#0C780C"/>
<path d="M132.618 16.3966L134.343 13.6567" stroke="#0C780C"/>
<path d="M131.777 13.5154L133.606 11.1356" stroke="#0C780C"/>
<path d="M130.935 10.6342L132.372 8.35092" stroke="#0C780C"/>
<path d="M130.094 7.75296L131.636 5.82984" stroke="#0C780C"/>
<path d="M133.144 18.1974L134.686 16.2742" stroke="#0C780C"/>
<path d="M131.777 13.5154L129.288 12.1971" stroke="#0C780C"/>
<path d="M130.935 10.6342L128.447 9.31594" stroke="#0C780C"/>
<path d="M130.094 7.75296L128.103 6.69836" stroke="#0C780C"/>
<path d="M132.752 18.2939L130.761 17.2393" stroke="#0C780C"/>
<path d="M169.641 44.4571L184.872 30.4837M169.641 44.4571C169.641 44.4571 175.963 44.4571 180.561 42.3479C185.159 40.2387 184.584 40.2387 186.021 37.3386C187.458 34.4384 184.872 30.4837 184.872 30.4837M169.641 44.4571C169.641 44.4571 169.923 37.9106 171.94 34.4384C173.507 31.7397 174.481 30.5297 177.687 29.6927C180.778 28.8858 184.872 30.4837 184.872 30.4837" stroke="#0C780C" stroke-width="2"/>
<path d="M184.297 31.011L185.159 30.2201L187.17 28.3745" stroke="#0C780C"/>
<path d="M181.423 33.6475V36.8113" stroke="#0C780C"/>
<path d="M181.423 33.6475H177.974" stroke="#0C780C"/>
<path d="M179.124 35.7567L175.963 35.493" stroke="#0C780C"/>
<path d="M176.825 37.8659H173.951" stroke="#0C780C"/>
<path d="M174.526 39.9751L171.939 39.7114" stroke="#0C780C"/>
<path d="M182.86 32.3293L180.273 32.0656" stroke="#0C780C"/>
<path d="M179.124 35.7567V38.3932" stroke="#0C780C"/>
<path d="M176.825 37.8659V40.5024" stroke="#0C780C"/>
<path d="M174.526 39.9751V42.0843" stroke="#0C780C"/>
<path d="M183.147 32.5929V34.7021" stroke="#0C780C"/>
<path d="M245.499 22.0122L229.766 35.5093M245.499 22.0122C245.499 22.0122 239.181 21.8177 234.508 23.7843C229.835 25.7509 230.41 25.7686 228.868 28.6229C227.326 31.4772 229.766 35.5093 229.766 35.5093M245.499 22.0122C245.499 22.0122 244.977 28.5463 242.835 31.9545C241.171 34.6035 240.152 35.7829 236.918 36.5207C233.799 37.2322 229.766 35.5093 229.766 35.5093" stroke="#0C780C" stroke-width="2"/>
<path d="M230.36 34.9999L229.469 35.7639L227.391 37.5465" stroke="#0C780C"/>
<path d="M233.328 32.4533L233.444 29.2913" stroke="#0C780C"/>
<path d="M233.328 32.4533L236.775 32.5594" stroke="#0C780C"/>
<path d="M235.703 30.416L238.853 30.7767" stroke="#0C780C"/>
<path d="M238.078 28.3787L240.95 28.4671" stroke="#0C780C"/>
<path d="M240.453 26.3414L243.028 26.6845" stroke="#0C780C"/>
<path d="M231.844 33.7266L234.42 34.0696" stroke="#0C780C"/>
<path d="M235.703 30.416L235.8 27.781" stroke="#0C780C"/>
<path d="M238.078 28.3787L238.174 25.7437" stroke="#0C780C"/>
<path d="M240.453 26.3414L240.53 24.2334" stroke="#0C780C"/>
<path d="M231.567 33.4543L231.644 31.3463" stroke="#0C780C"/>
<path d="M299.054 65.5032L288.285 48.3894M299.054 65.5032C299.054 65.5032 300.691 59.9006 299.66 55.2801C298.63 50.6595 298.481 51.1688 295.799 49.1449C293.118 47.121 288.285 48.3894 288.285 48.3894M299.054 65.5032C299.054 65.5032 292.235 63.5583 289.101 60.8729C286.665 58.7857 285.644 57.6087 285.592 54.5513C285.543 51.6033 288.285 48.3894 288.285 48.3894" stroke="#0C780C" stroke-width="2"/>
<path d="M288.691 49.0352L288.081 48.0665L286.659 45.8062" stroke="#0C780C"/>
<path d="M290.723 52.2643L294.054 53.0831" stroke="#0C780C"/>
<path d="M290.723 52.2643L289.83 55.3203" stroke="#0C780C"/>
<path d="M292.349 54.8475L291.253 57.5805" stroke="#0C780C"/>
<path d="M293.974 57.4307L293.23 59.9774" stroke="#0C780C"/>
<path d="M295.6 60.0139L294.653 62.2377" stroke="#0C780C"/>
<path d="M289.707 50.6497L288.76 52.8735" stroke="#0C780C"/>
<path d="M292.349 54.8475L295.124 55.5298" stroke="#0C780C"/>
<path d="M293.974 57.4307L296.75 58.1131" stroke="#0C780C"/>
<path d="M295.6 60.0139L297.821 60.5598" stroke="#0C780C"/>
<path d="M290.059 50.4633L292.28 51.0092" stroke="#0C780C"/>
<path d="M363.306 25.3916L378.537 39.365M363.306 25.3916C363.306 25.3916 363.306 31.1919 365.605 35.4103C367.904 39.6287 367.904 39.1014 371.066 40.4196C374.227 41.7379 378.537 39.365 378.537 39.365M363.306 25.3916C363.306 25.3916 370.442 25.6511 374.227 27.5008C377.168 28.9385 378.487 29.8328 379.4 32.7738C380.279 35.6096 378.537 39.365 378.537 39.365" stroke="#0C780C" stroke-width="2"/>
<path d="M377.962 38.8377L378.825 39.6287L380.836 41.4742" stroke="#0C780C"/>
<path d="M375.089 36.2012H371.64" stroke="#0C780C"/>
<path d="M375.089 36.2012V33.0374" stroke="#0C780C"/>
<path d="M372.79 34.092L373.077 31.1919" stroke="#0C780C"/>
<path d="M370.491 31.9828V29.3463" stroke="#0C780C"/>
<path d="M368.192 29.8737L368.479 27.5008" stroke="#0C780C"/>
<path d="M376.526 37.5194L376.813 35.1466" stroke="#0C780C"/>
<path d="M372.79 34.092H369.916" stroke="#0C780C"/>
<path d="M370.491 31.9828H367.617" stroke="#0C780C"/>
<path d="M368.192 29.8737H365.893" stroke="#0C780C"/>
<path d="M376.238 37.7831H373.939" stroke="#0C780C"/>
<path d="M429.036 50.0215L439.806 32.9077M429.036 50.0215C429.036 50.0215 435.143 48.5204 438.989 45.3912C442.836 42.2621 442.281 42.3985 442.85 39.256C443.42 36.1136 439.806 32.9077 439.806 32.9077M429.036 50.0215C429.036 50.0215 427.463 43.631 428.431 39.7984C429.183 36.8195 429.783 35.4192 432.643 33.8496C435.402 32.3362 439.806 32.9077 439.806 32.9077" stroke="#0C780C" stroke-width="2"/>
<path d="M439.4 33.5536L440.01 32.5848L441.432 30.3245" stroke="#0C780C"/>
<path d="M437.368 36.7826L438.26 39.8385" stroke="#0C780C"/>
<path d="M437.368 36.7826L434.037 37.6014" stroke="#0C780C"/>
<path d="M435.742 39.3658L432.614 39.8617" stroke="#0C780C"/>
<path d="M434.117 41.949L431.341 42.6314" stroke="#0C780C"/>
<path d="M432.491 44.5322L429.918 44.8917" stroke="#0C780C"/>
<path d="M438.384 35.168L435.811 35.5275" stroke="#0C780C"/>
<path d="M435.742 39.3658L436.486 41.9124" stroke="#0C780C"/>
<path d="M434.117 41.949L434.86 44.4957" stroke="#0C780C"/>
<path d="M432.491 44.5322L433.086 46.5696" stroke="#0C780C"/>
<path d="M438.736 35.3545L439.331 37.3918" stroke="#0C780C"/>
<path d="M504.455 15.2769L493.685 32.3907M504.455 15.2769C504.455 15.2769 498.348 16.7781 494.501 19.9072C490.655 23.0363 491.21 22.8999 490.641 26.0424C490.071 29.1848 493.685 32.3907 493.685 32.3907M504.455 15.2769C504.455 15.2769 506.028 21.6674 505.06 25.5C504.308 28.4789 503.708 29.8792 500.847 31.4488C498.089 32.9622 493.685 32.3907 493.685 32.3907" stroke="#0C780C" stroke-width="2"/>
<path d="M494.091 31.7449L493.481 32.7136L492.059 34.9739" stroke="#0C780C"/>
<path d="M496.123 28.5158L495.231 25.4599" stroke="#0C780C"/>
<path d="M496.123 28.5158L499.454 27.697" stroke="#0C780C"/>
<path d="M497.749 25.9326L500.877 25.4367" stroke="#0C780C"/>
<path d="M499.374 23.3494L502.15 22.667" stroke="#0C780C"/>
<path d="M501 20.7662L503.573 20.4067" stroke="#0C780C"/>
<path d="M495.107 30.1304L497.68 29.7709" stroke="#0C780C"/>
<path d="M497.749 25.9326L497.005 23.386" stroke="#0C780C"/>
<path d="M499.374 23.3494L498.63 20.8027" stroke="#0C780C"/>
<path d="M501 20.7662L500.405 18.7289" stroke="#0C780C"/>
<path d="M494.755 29.9439L494.16 27.9066" stroke="#0C780C"/>
<path d="M1.00049 30.2585C1.00049 30.2585 14.0057 50.7656 70.0907 36.2242C126.176 21.6828 151.373 19.4457 193.64 30.2585C235.907 41.0713 278.929 48.2688 334.259 46.6642C378.595 45.3783 417.98 30.2585 446.429 30.2585C474.878 30.2585 546 46.6642 546 46.6642" stroke="#0C780C" stroke-width="2"/>
</svg>
