<svg width="538" height="69" viewBox="0 0 538 69" fill="none" xmlns="http://www.w3.org/2000/svg">
<path d="M527.662 7.45741L522.169 26.2018M527.662 7.45741C527.662 7.45741 522.267 10.3053 519.476 14.1703C516.685 18.0352 517.175 17.7764 517.507 20.89C517.838 24.0036 522.169 26.2018 522.169 26.2018M527.662 7.45741C527.662 7.45741 530.936 13.1521 531.08 17.0132C531.192 20.0142 531.01 21.4824 528.724 23.6382C526.52 25.7168 522.169 26.2018 522.169 26.2018" stroke="#0C780C" stroke-width="2"/>
<path d="M522.376 25.4945L522.065 26.5555L521.339 29.0312" stroke="#0C780C"/>
<path d="M523.412 21.9578L521.713 19.2672" stroke="#0C780C"/>
<path d="M523.413 21.9578L526.355 20.4044" stroke="#0C780C"/>
<path d="M524.241 19.1284L527.08 17.9287" stroke="#0C780C"/>
<path d="M525.071 16.2991L527.523 15.0046" stroke="#0C780C"/>
<path d="M525.9 13.4697L528.249 12.5289" stroke="#0C780C"/>
<path d="M522.894 23.7261L525.243 22.7853" stroke="#0C780C"/>
<path d="M524.241 19.1284L522.826 16.8863" stroke="#0C780C"/>
<path d="M525.071 16.2991L523.655 14.0569" stroke="#0C780C"/>
<path d="M525.9 13.4697L524.767 11.676" stroke="#0C780C"/>
<path d="M522.507 23.6314L521.375 21.8376" stroke="#0C780C"/>
<path d="M485.012 48.7325L490.505 29.9881M485.012 48.7325C485.012 48.7325 490.407 45.8846 493.198 42.0197C495.989 38.1547 495.498 38.4135 495.167 35.2999C494.836 32.1863 490.505 29.9881 490.505 29.9881M485.012 48.7325C485.012 48.7325 481.738 43.0378 481.594 39.1767C481.482 36.1757 481.664 34.7076 483.95 32.5518C486.154 30.4731 490.505 29.9881 490.505 29.9881" stroke="#0C780C" stroke-width="2"/>
<path d="M490.298 30.6955L490.609 29.6345L491.334 27.1588" stroke="#0C780C"/>
<path d="M489.261 34.2322L490.96 36.9228" stroke="#0C780C"/>
<path d="M489.261 34.2321L486.319 35.7856" stroke="#0C780C"/>
<path d="M488.432 37.0615L485.593 38.2613" stroke="#0C780C"/>
<path d="M487.603 39.8908L485.151 41.1853" stroke="#0C780C"/>
<path d="M486.774 42.7202L484.425 43.661" stroke="#0C780C"/>
<path d="M489.779 32.4638L487.431 33.4047" stroke="#0C780C"/>
<path d="M488.432 37.0615L489.848 39.3037" stroke="#0C780C"/>
<path d="M487.603 39.8909L489.019 42.133" stroke="#0C780C"/>
<path d="M486.774 42.7202L487.907 44.5139" stroke="#0C780C"/>
<path d="M490.166 32.5586L491.299 34.3523" stroke="#0C780C"/>
<path d="M440.542 19.0038L455.549 32.7257M440.542 19.0038C440.542 19.0038 440.542 24.6997 442.807 28.8421C445.072 32.9846 445.072 32.4669 448.187 33.7613C451.302 35.0558 455.549 32.7257 455.549 32.7257M440.542 19.0038C440.542 19.0038 447.573 19.2586 451.302 21.075C454.2 22.4868 455.5 23.3651 456.399 26.2532C457.265 29.0379 455.549 32.7257 455.549 32.7257" stroke="#0C780C" stroke-width="2"/>
<path d="M454.983 32.2078L455.832 32.9846L457.814 34.7969" stroke="#0C780C"/>
<path d="M452.151 29.6188L448.753 29.6188" stroke="#0C780C"/>
<path d="M452.151 29.6188L452.151 26.512" stroke="#0C780C"/>
<path d="M449.886 27.5476L450.169 24.6997" stroke="#0C780C"/>
<path d="M447.62 25.4764L447.62 22.8873" stroke="#0C780C"/>
<path d="M445.355 23.4052L445.638 21.075" stroke="#0C780C"/>
<path d="M453.567 30.9134L453.85 28.5832" stroke="#0C780C"/>
<path d="M449.886 27.5476L447.054 27.5476" stroke="#0C780C"/>
<path d="M447.621 25.4764L444.789 25.4764" stroke="#0C780C"/>
<path d="M445.355 23.4052L443.09 23.4052" stroke="#0C780C"/>
<path d="M453.284 31.1723L451.018 31.1723" stroke="#0C780C"/>
<path d="M411.563 66.4341L406.07 47.6897M411.563 66.4341C411.563 66.4341 414.678 61.5014 414.982 56.8783C415.285 52.2552 415.002 52.7035 413.013 50.1585C411.023 47.6135 406.07 47.6897 406.07 47.6897M411.563 66.4341C411.563 66.4341 405.614 62.9991 403.378 59.7212C401.64 57.1735 400.994 55.8188 401.795 52.9067C402.567 50.0988 406.07 47.6897 406.07 47.6897" stroke="#0C780C" stroke-width="2"/>
<path d="M406.278 48.397L405.967 47.336L405.241 44.8603" stroke="#0C780C"/>
<path d="M407.314 51.9337L410.257 53.4871" stroke="#0C780C"/>
<path d="M407.314 51.9337L405.615 54.6243" stroke="#0C780C"/>
<path d="M408.143 54.763L406.341 57.1" stroke="#0C780C"/>
<path d="M408.972 57.5924L407.557 59.8346" stroke="#0C780C"/>
<path d="M409.802 60.4218L408.282 62.3103" stroke="#0C780C"/>
<path d="M406.796 50.1654L405.277 52.0539" stroke="#0C780C"/>
<path d="M408.143 54.7631L410.596 56.0576" stroke="#0C780C"/>
<path d="M408.972 57.5924L411.425 58.8869" stroke="#0C780C"/>
<path d="M409.802 60.4218L411.763 61.4574" stroke="#0C780C"/>
<path d="M407.183 50.0706L409.144 51.1062" stroke="#0C780C"/>
<path d="M370.835 24.3784L355.828 38.1002M370.835 24.3784C370.835 24.3784 364.606 24.3783 360.075 26.4495C355.545 28.5208 356.111 28.5208 354.695 31.3687C353.28 34.2166 355.828 38.1002 355.828 38.1002M370.835 24.3784C370.835 24.3784 370.557 30.807 368.57 34.2166C367.026 36.8668 366.066 38.0551 362.907 38.8769C359.861 39.6694 355.828 38.1002 355.828 38.1002" stroke="#0C780C" stroke-width="2"/>
<path d="M356.395 37.5824L355.545 38.3591L353.563 40.1714" stroke="#0C780C"/>
<path d="M359.226 34.9933L359.226 31.8865" stroke="#0C780C"/>
<path d="M359.226 34.9933L362.624 34.9933" stroke="#0C780C"/>
<path d="M361.491 32.9221L364.606 33.181" stroke="#0C780C"/>
<path d="M363.757 30.8509L366.588 30.8509" stroke="#0C780C"/>
<path d="M366.022 28.7797L368.57 29.0386" stroke="#0C780C"/>
<path d="M357.81 36.2879L360.359 36.5468" stroke="#0C780C"/>
<path d="M361.491 32.9221L361.491 30.3331" stroke="#0C780C"/>
<path d="M363.757 30.8509L363.757 28.2619" stroke="#0C780C"/>
<path d="M366.022 28.7797L366.022 26.7084" stroke="#0C780C"/>
<path d="M357.527 36.029L357.527 33.9577" stroke="#0C780C"/>
<path d="M296.09 46.4192L311.592 33.1651M296.09 46.4192C296.09 46.4192 302.316 46.6102 306.92 44.6791C311.523 42.7479 310.958 42.7305 312.477 39.9275C313.996 37.1246 311.592 33.1651 311.592 33.1651M296.09 46.4192C296.09 46.4192 296.604 40.0028 298.714 36.6559C300.355 34.0546 301.358 32.8964 304.545 32.1719C307.618 31.4732 311.592 33.1651 311.592 33.1651" stroke="#0C780C" stroke-width="2"/>
<path d="M311.007 33.6653L311.884 32.9151L313.932 31.1645" stroke="#0C780C"/>
<path d="M308.082 36.1661L307.968 39.2712" stroke="#0C780C"/>
<path d="M308.082 36.1661L304.686 36.0619" stroke="#0C780C"/>
<path d="M305.742 38.1667L302.638 37.8124" stroke="#0C780C"/>
<path d="M303.402 40.1673L300.572 40.0805" stroke="#0C780C"/>
<path d="M301.062 42.1679L298.525 41.831" stroke="#0C780C"/>
<path d="M309.545 34.9157L307.007 34.5788" stroke="#0C780C"/>
<path d="M305.742 38.1667L305.647 40.7542" stroke="#0C780C"/>
<path d="M303.402 40.1673L303.307 42.7549" stroke="#0C780C"/>
<path d="M301.062 42.1679L300.986 44.238" stroke="#0C780C"/>
<path d="M309.818 35.1831L309.742 37.2532" stroke="#0C780C"/>
<path d="M243.321 3.71092L253.933 20.5167M243.321 3.71092C243.321 3.71092 241.709 9.21268 242.724 13.7501C243.74 18.2874 243.886 17.7873 246.528 19.7748C249.171 21.7623 253.933 20.5167 253.933 20.5167M243.321 3.71092C243.321 3.71092 250.04 5.62087 253.128 8.25789C255.528 10.3075 256.535 11.4633 256.586 14.4657C256.634 17.3607 253.933 20.5167 253.933 20.5167" stroke="#0C780C" stroke-width="2"/>
<path d="M253.533 19.8825L254.133 20.8338L255.535 23.0534" stroke="#0C780C"/>
<path d="M251.53 16.7116L248.248 15.9075" stroke="#0C780C"/>
<path d="M251.53 16.7116L252.41 13.7106" stroke="#0C780C"/>
<path d="M249.928 14.1749L251.008 11.491" stroke="#0C780C"/>
<path d="M248.327 11.6381L249.06 9.13733" stroke="#0C780C"/>
<path d="M246.725 9.10143L247.658 6.9177" stroke="#0C780C"/>
<path d="M252.531 18.2971L253.464 16.1134" stroke="#0C780C"/>
<path d="M249.928 14.1749L247.193 13.5048" stroke="#0C780C"/>
<path d="M248.327 11.6382L245.592 10.9681" stroke="#0C780C"/>
<path d="M246.725 9.10141L244.537 8.56534" stroke="#0C780C"/>
<path d="M252.185 18.4801L249.996 17.9441" stroke="#0C780C"/>
<path d="M180.012 43.1006L165.005 29.3787M180.012 43.1006C180.012 43.1006 180.012 37.4047 177.747 33.2623C175.482 29.1198 175.482 29.6376 172.367 28.3431C169.252 27.0486 165.005 29.3787 165.005 29.3787M180.012 43.1006C180.012 43.1006 172.981 42.8458 169.252 41.0294C166.354 39.6176 165.054 38.7394 164.155 35.8513C163.289 33.0665 165.005 29.3787 165.005 29.3787" stroke="#0C780C" stroke-width="2"/>
<path d="M165.571 29.8966L164.722 29.1198L162.74 27.3075" stroke="#0C780C"/>
<path d="M168.403 32.4856L171.801 32.4856" stroke="#0C780C"/>
<path d="M168.403 32.4856L168.403 35.5925" stroke="#0C780C"/>
<path d="M170.668 34.5568L170.385 37.4048" stroke="#0C780C"/>
<path d="M172.933 36.6281L172.933 39.2171" stroke="#0C780C"/>
<path d="M175.199 38.6993L174.915 41.0294" stroke="#0C780C"/>
<path d="M166.987 31.1911L166.704 33.5212" stroke="#0C780C"/>
<path d="M170.668 34.5568L173.5 34.5568" stroke="#0C780C"/>
<path d="M172.933 36.6281L175.765 36.6281" stroke="#0C780C"/>
<path d="M175.198 38.6993L177.464 38.6993" stroke="#0C780C"/>
<path d="M167.27 30.9322L169.535 30.9322" stroke="#0C780C"/>
<path d="M115.247 18.9139L104.635 35.7197M115.247 18.9139C115.247 18.9139 109.23 20.3881 105.44 23.4609C101.65 26.5337 102.197 26.3997 101.636 29.4856C101.074 32.5715 104.635 35.7197 104.635 35.7197M115.247 18.9139C115.247 18.9139 116.797 25.1894 115.844 28.9531C115.102 31.8783 114.511 33.2534 111.693 34.7947C108.975 36.2809 104.635 35.7197 104.635 35.7197" stroke="#0C780C" stroke-width="2"/>
<path d="M105.035 35.0855L104.435 36.0367L103.033 38.2564" stroke="#0C780C"/>
<path d="M107.038 31.9146L106.158 28.9136" stroke="#0C780C"/>
<path d="M107.038 31.9146L110.32 31.1105" stroke="#0C780C"/>
<path d="M108.639 29.3779L111.721 28.8909" stroke="#0C780C"/>
<path d="M110.241 26.8411L112.976 26.171" stroke="#0C780C"/>
<path d="M111.843 24.3044L114.378 23.9514" stroke="#0C780C"/>
<path d="M106.037 33.5001L108.571 33.1471" stroke="#0C780C"/>
<path d="M108.639 29.3779L107.907 26.8771" stroke="#0C780C"/>
<path d="M110.241 26.8412L109.508 24.3403" stroke="#0C780C"/>
<path d="M111.843 24.3044L111.256 22.3038" stroke="#0C780C"/>
<path d="M105.69 33.317L105.103 31.3163" stroke="#0C780C"/>
<path d="M40.9355 53.0333L51.5473 36.2275M40.9355 53.0333C40.9355 53.0333 46.9527 51.5591 50.7426 48.4863C54.5324 45.4136 53.9855 45.5475 54.5468 42.4616C55.1082 39.3757 51.5473 36.2275 51.5473 36.2275M40.9355 53.0333C40.9355 53.0333 39.3849 46.7578 40.3386 42.9942C41.0799 40.0689 41.6713 38.6939 44.4897 37.1525C47.2073 35.6663 51.5473 36.2275 51.5473 36.2275" stroke="#0C780C" stroke-width="2"/>
<path d="M51.1469 36.8617L51.7476 35.9105L53.1492 33.6908" stroke="#0C780C"/>
<path d="M49.1448 40.0327L50.0242 43.0336" stroke="#0C780C"/>
<path d="M49.1448 40.0326L45.8626 40.8367" stroke="#0C780C"/>
<path d="M47.5429 42.5694L44.461 43.0564" stroke="#0C780C"/>
<path d="M45.941 45.1061L43.2059 45.7762" stroke="#0C780C"/>
<path d="M44.3395 47.6428L41.8046 47.9958" stroke="#0C780C"/>
<path d="M50.1459 38.4472L47.611 38.8002" stroke="#0C780C"/>
<path d="M47.543 42.5694L48.2758 45.0702" stroke="#0C780C"/>
<path d="M45.9412 45.1061L46.674 47.6069" stroke="#0C780C"/>
<path d="M44.3394 47.6428L44.9257 49.6435" stroke="#0C780C"/>
<path d="M50.4927 38.6302L51.079 40.6309" stroke="#0C780C"/>
<path d="M537 38.3213C537 38.3213 524.186 18.1834 468.924 32.463C413.662 46.7426 388.834 48.9395 347.188 38.3213C305.541 27.7031 263.151 20.6352 208.633 22.211C164.948 23.4737 126.141 38.3213 98.1096 38.3213C70.0783 38.3213 -3.2416e-06 22.211 -3.2416e-06 22.211" stroke="#0C780C" stroke-width="2"/>
</svg>
