<svg width="140" height="50" viewBox="0 0 140 50" fill="none" xmlns="http://www.w3.org/2000/svg">
<path d="M42.828 38V37.244L43.548 37.064C44.028 36.92 44.34 36.704 44.484 36.416C44.628 36.128 44.7 35.732 44.7 35.228C44.724 33.86 44.736 32.48 44.736 31.088C44.736 29.672 44.736 28.256 44.736 26.84V25.364C44.736 23.972 44.736 22.58 44.736 21.188C44.736 19.796 44.724 18.404 44.7 17.012C44.7 16.508 44.616 16.124 44.448 15.86C44.304 15.572 43.992 15.344 43.512 15.176L42.828 14.96V14.204H51.504C55.008 14.204 57.552 14.864 59.136 16.184C60.744 17.48 61.548 19.196 61.548 21.332C61.548 22.676 61.212 23.924 60.54 25.076C59.892 26.204 58.812 27.104 57.3 27.776C55.788 28.448 53.748 28.784 51.18 28.784H49.884C49.884 29.792 49.884 30.836 49.884 31.916C49.884 32.972 49.896 34.052 49.92 35.156C49.92 36.14 50.364 36.74 51.252 36.956L52.332 37.244V38H42.828ZM49.884 27.74H51.396C52.596 27.74 53.568 27.56 54.312 27.2C55.08 26.816 55.644 26.168 56.004 25.256C56.388 24.344 56.58 23.084 56.58 21.476C56.58 19.868 56.376 18.62 55.968 17.732C55.584 16.82 54.996 16.184 54.204 15.824C53.412 15.44 52.428 15.248 51.252 15.248H49.92C49.896 16.904 49.884 18.584 49.884 20.288C49.884 21.968 49.884 23.66 49.884 25.364V27.74ZM62.6561 38V37.316L63.1961 37.172C63.9881 36.908 64.3841 36.308 64.3841 35.372C64.3841 34.556 64.3841 33.74 64.3841 32.924C64.4081 32.084 64.4201 31.256 64.4201 30.44V16.76C64.4201 16.256 64.3361 15.884 64.1681 15.644C64.0001 15.38 63.6761 15.188 63.1961 15.068L62.6561 14.924V14.24L68.9561 12.728L69.4241 13.052L69.2801 18.128V35.372C69.3041 35.852 69.4001 36.248 69.5681 36.56C69.7601 36.848 70.0841 37.052 70.5401 37.172L71.0441 37.316V38H62.6561ZM77.5424 38.504C76.1744 38.504 75.0104 38.12 74.0504 37.352C73.1144 36.56 72.6464 35.432 72.6464 33.968C72.6464 32.816 73.1984 31.76 74.3024 30.8C75.4304 29.816 77.1944 29.096 79.5944 28.64C80.0024 28.544 80.4704 28.46 80.9984 28.388C81.5504 28.292 82.0904 28.196 82.6184 28.1V25.544C82.6184 23.912 82.4144 22.784 82.0064 22.16C81.5984 21.536 80.9504 21.224 80.0624 21.224H79.9544C79.4024 21.224 78.9584 21.404 78.6224 21.764C78.3104 22.1 78.1064 22.664 78.0104 23.456L77.9024 23.924C77.8304 24.884 77.5784 25.592 77.1464 26.048C76.7144 26.48 76.1744 26.696 75.5264 26.696C74.9264 26.696 74.4224 26.516 74.0144 26.156C73.6304 25.772 73.4384 25.28 73.4384 24.68C73.4384 23.696 73.7744 22.868 74.4464 22.196C75.1184 21.524 76.0064 21.02 77.1104 20.684C78.2384 20.348 79.4504 20.18 80.7464 20.18C82.8824 20.18 84.5144 20.696 85.6424 21.728C86.7704 22.76 87.3344 24.44 87.3344 26.768V34.796C87.3344 35.828 87.8264 36.344 88.8104 36.344H89.6384L89.9984 36.74C89.5664 37.292 89.0864 37.712 88.5584 38C88.0304 38.312 87.3104 38.468 86.3984 38.468C85.3664 38.468 84.5384 38.228 83.9144 37.748C83.3144 37.244 82.9184 36.584 82.7264 35.768C81.9584 36.584 81.2024 37.244 80.4584 37.748C79.7144 38.252 78.7424 38.504 77.5424 38.504ZM79.6304 36.2C80.1104 36.2 80.5664 36.092 80.9984 35.876C81.4304 35.66 81.9704 35.3 82.6184 34.796V29.036C81.9944 29.132 81.3584 29.252 80.7104 29.396C79.6784 29.636 78.8384 30.08 78.1904 30.728C77.5664 31.376 77.2544 32.252 77.2544 33.356C77.2544 34.316 77.4704 35.036 77.9024 35.516C78.3584 35.972 78.9344 36.2 79.6304 36.2ZM90.7091 38V37.316L91.2851 37.172C92.0771 36.932 92.4731 36.344 92.4731 35.408V24.788C92.4491 24.284 92.3651 23.9 92.2211 23.636C92.0771 23.348 91.7651 23.156 91.2851 23.06L90.7091 22.916V22.268L96.5411 20.18L96.9731 20.576L97.2251 22.808C98.0891 22.04 99.0491 21.416 100.105 20.936C101.185 20.432 102.241 20.18 103.273 20.18C104.857 20.18 106.069 20.612 106.909 21.476C107.773 22.34 108.205 23.66 108.205 25.436V35.444C108.205 36.38 108.637 36.968 109.501 37.208L109.897 37.316V38H101.617V37.316L102.157 37.172C102.949 36.908 103.345 36.32 103.345 35.408V24.716C103.345 23.876 103.165 23.264 102.805 22.88C102.445 22.496 101.845 22.304 101.005 22.304C99.8291 22.304 98.6051 22.82 97.3331 23.852V35.444C97.3331 36.38 97.7531 36.968 98.5931 37.208L98.9531 37.316V38H90.7091ZM117.973 38.504C116.485 38.504 115.309 38.144 114.445 37.424C113.605 36.68 113.185 35.48 113.185 33.824C113.185 33.248 113.185 32.708 113.185 32.204C113.209 31.676 113.221 31.064 113.221 30.368V21.836H110.665V21.044L111.637 20.9C112.333 20.78 112.921 20.564 113.401 20.252C113.905 19.94 114.361 19.508 114.769 18.956L117.109 15.716H118.189L118.081 20.72H122.185V21.836H118.045V34.112C118.045 34.976 118.225 35.624 118.585 36.056C118.969 36.488 119.437 36.704 119.989 36.704C120.469 36.704 120.901 36.596 121.285 36.38C121.669 36.14 122.053 35.828 122.437 35.444L122.905 35.984C122.449 36.776 121.813 37.4 120.997 37.856C120.181 38.288 119.173 38.504 117.973 38.504ZM130.511 38.504C129.359 38.504 128.315 38.372 127.379 38.108C126.467 37.868 125.591 37.52 124.751 37.064V32.816H125.723L126.803 34.868C127.259 35.756 127.775 36.416 128.351 36.848C128.951 37.28 129.707 37.496 130.619 37.496C131.747 37.496 132.647 37.256 133.319 36.776C133.991 36.272 134.327 35.6 134.327 34.76C134.327 33.992 134.075 33.368 133.571 32.888C133.067 32.408 132.167 31.964 130.871 31.556L129.287 31.052C127.871 30.62 126.743 29.972 125.903 29.108C125.087 28.22 124.679 27.116 124.679 25.796C124.679 24.764 124.955 23.828 125.507 22.988C126.059 22.124 126.863 21.44 127.919 20.936C128.975 20.432 130.259 20.18 131.771 20.18C132.755 20.18 133.655 20.3 134.471 20.54C135.311 20.756 136.127 21.068 136.919 21.476L136.703 25.328H135.767L134.651 23.276C134.267 22.508 133.871 21.98 133.463 21.692C133.079 21.38 132.479 21.224 131.663 21.224C130.799 21.224 130.031 21.452 129.359 21.908C128.711 22.34 128.387 22.952 128.387 23.744C128.387 24.488 128.663 25.1 129.215 25.58C129.767 26.036 130.655 26.468 131.879 26.876L133.427 27.344C135.179 27.896 136.427 28.628 137.171 29.54C137.915 30.452 138.287 31.544 138.287 32.816C138.287 34.52 137.603 35.9 136.235 36.956C134.891 37.988 132.983 38.504 130.511 38.504Z" fill="#E8F2E8"/>
<path d="M14.2796 2.00001L14.2796 41.9029M14.2796 2.00001C14.2796 2.00001 5.99786 10.2816 2.98633 19.3163C-0.025205 28.3509 0.72768 27.5982 2.98633 33.6212C5.24497 39.6441 14.2796 41.9029 14.2796 41.9029M14.2796 2.00001C14.2796 2.00001 23.2563 11.7176 25.5729 19.3163C27.3734 25.2223 27.8242 28.2269 24.8199 33.6212C21.9232 38.8223 14.2796 41.9029 14.2796 41.9029" stroke="#E8F2E8" stroke-width="2"/>
<path d="M14.2795 40.397L14.2795 42.6556L14.2795 47.9258" stroke="#E8F2E8"/>
<path d="M14.2795 32.8681L9.76223 28.3508" stroke="#E8F2E8"/>
<path d="M14.2796 32.8682L18.7969 28.3509" stroke="#E8F2E8"/>
<path d="M14.2796 26.8451L18.7969 23.0807" stroke="#E8F2E8"/>
<path d="M14.2795 20.822L18.0439 17.0576" stroke="#E8F2E8"/>
<path d="M14.2795 14.799L18.0439 11.7874" stroke="#E8F2E8"/>
<path d="M14.2795 36.6326L18.0439 33.621" stroke="#E8F2E8"/>
<path d="M14.2795 26.8451L10.5151 23.0807" stroke="#E8F2E8"/>
<path d="M14.2795 20.8221L10.5151 17.0576" stroke="#E8F2E8"/>
<path d="M14.2795 14.799L11.268 11.7874" stroke="#E8F2E8"/>
<path d="M13.5269 36.6326L10.5153 33.6211" stroke="#E8F2E8"/>
</svg>
