<svg width="117" height="161" viewBox="0 0 117 161" fill="none" xmlns="http://www.w3.org/2000/svg">
<path d="M20 118V114C20 113.448 20.4477 113 21 113H98C98.5523 113 99 113.448 99 114V118C99 118.552 98.5523 119 98 119H21C20.4477 119 20 118.552 20 118Z" stroke="#2C312C" stroke-width="3"/>
<path d="M30 119V159H82.8673H88V119" stroke="#2C312C" stroke-width="4"/>
<path d="M8.09858 13.4365L50.248 37.7715M8.09858 13.4365C8.09858 13.4365 11.7958 27.2351 19.5025 35.926C27.2091 44.6169 26.8732 43.3626 34.6127 44.6499C42.3523 45.9372 50.248 37.7715 50.248 37.7715M8.09858 13.4365C8.09858 13.4365 23.8377 9.88073 33.277 12.0678C40.6136 13.7677 44.0623 15.1239 47.9281 21.587C51.6555 27.8189 50.248 37.7715 50.248 37.7715" stroke="#2C312C" stroke-width="2"/>
<path d="M48.6574 36.8532L51.0432 38.2306L56.6101 41.4447" stroke="#2C312C"/>
<path d="M40.7046 32.2617L33.1781 34.2784" stroke="#2C312C"/>
<path d="M40.7046 32.2616L38.6878 24.7351" stroke="#2C312C"/>
<path d="M34.3425 28.5883L33.1211 21.521" stroke="#2C312C"/>
<path d="M27.9801 24.9152L26.2995 18.6431" stroke="#2C312C"/>
<path d="M21.6181 21.2419L20.7327 15.429" stroke="#2C312C"/>
<path d="M44.6811 34.5573L43.7957 28.7443" stroke="#2C312C"/>
<path d="M34.3425 28.5886L28.0704 30.2692" stroke="#2C312C"/>
<path d="M27.9802 24.9153L21.7081 26.596" stroke="#2C312C"/>
<path d="M21.6182 21.2421L16.6005 22.5866" stroke="#2C312C"/>
<path d="M44.2219 35.3527L39.2042 36.6971" stroke="#2C312C"/>
<path d="M112.984 63.2984L65.9729 75.8951M112.984 63.2984C112.984 63.2984 100.613 56.1556 89.0182 55.4596C77.4234 54.7637 78.5479 55.4131 72.1649 59.9755C65.7819 64.5378 65.9729 75.8951 65.9729 75.8951M112.984 63.2984C112.984 63.2984 104.37 76.9419 96.1484 82.07C89.7586 86.0557 86.3611 87.5354 79.0574 85.6987C72.0152 83.9279 65.9729 75.8951 65.9729 75.8951" stroke="#2C312C" stroke-width="2"/>
<path d="M67.7471 75.4195L65.086 76.1325L58.877 77.7962" stroke="#2C312C"/>
<path d="M76.6172 73.0428L80.5132 66.2947" stroke="#2C312C"/>
<path d="M76.6172 73.0428L83.3653 76.9388" stroke="#2C312C"/>
<path d="M83.7134 71.1414L89.5745 75.2751" stroke="#2C312C"/>
<path d="M90.8094 69.2401L96.4329 72.4868" stroke="#2C312C"/>
<path d="M97.9056 67.3387L102.642 70.8231" stroke="#2C312C"/>
<path d="M72.1822 74.2312L76.9186 77.7156" stroke="#2C312C"/>
<path d="M83.7131 71.1414L86.9598 65.518" stroke="#2C312C"/>
<path d="M90.8093 69.2401L94.056 63.6166" stroke="#2C312C"/>
<path d="M97.9053 67.3385L100.503 62.8398" stroke="#2C312C"/>
<path d="M71.9443 73.3442L74.5417 68.8455" stroke="#2C312C"/>
<path d="M57.1926 112.861C57.1926 112.861 57.1926 56.3039 57.1926 20.0644" stroke="#2C312C" stroke-width="3"/>
</svg>
