<svg width="141" height="80" viewBox="0 0 141 80" fill="none" xmlns="http://www.w3.org/2000/svg">
<path d="M44.061 34L5.08213 8.92196C3.75114 8.06564 2 9.02126 2 10.6039L2 18.8476C2 19.5278 2.34578 20.1615 2.91787 20.5295L44.061 47M44.061 34V47M44.061 34V10M44.061 47V75.5C44.061 76.6046 44.9564 77.5 46.061 77.5H75.061H104.061C105.166 77.5 106.061 76.6046 106.061 75.5V10M44.061 10H106.061M44.061 10V4C44.061 2.89543 44.9564 2 46.061 2H71.061H104.061C105.166 2 106.061 2.89543 106.061 4V10" stroke="#2C312C" stroke-width="4"/>
<path d="M105.061 13C105.061 13 114.374 3.4791 122.061 3.00001C127.736 2.64634 132.478 2.58498 136.061 7.00001C139.999 11.8516 137.284 16.8725 136.061 23C134.726 29.6882 132.611 33.1766 129.061 39C122.304 50.0843 105.061 62 105.061 62" stroke="#2C312C" stroke-width="4"/>
</svg>
