<svg width="126" height="128" viewBox="0 0 126 128" fill="none" xmlns="http://www.w3.org/2000/svg">
<path d="M25.2788 22.6144L64.4225 61.7581L81.0768 74.7919C81.132 74.8352 81.1808 74.882 81.2261 74.9356C81.9218 75.7603 87.9666 82.8635 92.8033 86.5004C99.4061 91.4652 103.887 98.573 111.724 95.9607C116.681 94.3084 119.324 91.3829 121.184 86.5004C122.803 82.2512 122.803 79.1061 121.184 74.857C119.324 69.9745 116.397 67.7333 111.724 65.3967C105.912 62.4909 95.6912 64.6955 93.3094 65.2698C92.9896 65.3469 92.6538 65.2693 92.4033 65.0561L77.2079 52.1195C77.1666 52.0844 77.1426 52.0628 77.1074 52.0215C76.0093 50.7313 51.6217 22.192 33.1308 10.5872C32.6352 10.2761 32.1501 9.97854 31.6754 9.694C22.0366 3.91682 16.677 3.51517 14.7209 4.9966C13.0953 6.22776 13.8203 8.75948 16.3934 10.5872C21.6615 14.3291 24.546 21.0222 25.047 22.2614C25.1004 22.3934 25.1781 22.5137 25.2788 22.6144Z" stroke="#2C312C" stroke-width="4"/>
<path d="M92.4655 64.6693L104.766 58.5347C104.798 58.5185 104.829 58.5048 104.863 58.492C105.811 58.1337 120.208 52.5635 120.745 44.5926C121.097 39.3797 119.393 35.8239 115.581 32.2508C112.263 29.1412 109.353 27.9481 104.807 27.8339C99.5843 27.7028 96.4002 29.5609 92.4655 32.9985C87.6077 37.2425 85.7615 47.4189 85.371 49.9349C85.3162 50.2881 85.085 50.5898 84.7553 50.7278L80.4322 52.5369M6.02169 94.5055C26.0198 99.8417 61.6525 74.4819 64.9101 72.1215C65.0832 71.9961 65.2655 71.9465 65.4792 71.9465L74.9888 71.9465C75.9502 71.9465 76.3577 70.7223 75.5882 70.146L62.7003 60.495C62.415 60.2813 62.0374 60.2357 61.7094 60.3752L10.7901 82.0413C10.6465 82.1024 10.5191 82.1964 10.4183 82.3155L2.634 91.5152C2.58933 91.568 2.5498 91.6243 2.5289 91.6903C2.40861 92.0698 2.24272 93.4972 6.02169 94.5055Z" stroke="#2C312C" stroke-width="4"/>
<path d="M82.343 61.7583C82.343 63.4784 80.6603 65.1246 78.249 65.1246C75.8378 65.1246 74.155 63.4784 74.155 61.7583C74.155 60.0382 75.8378 58.392 78.249 58.392C80.6603 58.392 82.343 60.0382 82.343 61.7583Z" stroke="#2C312C" stroke-width="2"/>
<path d="M115.818 79.2234C115.818 84.2339 111.444 88.4114 105.902 88.4114C100.36 88.4114 95.9863 84.2339 95.9863 79.2234C95.9863 74.2129 100.36 70.0354 105.902 70.0354C111.444 70.0354 115.818 74.2129 115.818 79.2234Z" stroke="#2C312C" stroke-width="2"/>
<path d="M112.907 44.2932C112.907 49.3037 108.534 53.4811 102.991 53.4811C97.4487 53.4811 93.0754 49.3037 93.0754 44.2932C93.0754 39.2826 97.4487 35.1052 102.991 35.1052C108.534 35.1052 112.907 39.2826 112.907 44.2932Z" stroke="#2C312C" stroke-width="2"/>
</svg>
